HIERARCHY
ROOT Hips
{
	OFFSET -3.958830 18.904000 13.208200
	CHANNELS 6 Xposition Yposition Zposition Zrotation Yrotation Xrotation 
	JOINT LHipJoint
	{
		OFFSET 0.000000 0.000000 0.000000
		CHANNELS 3 Zrotation Yrotation Xrotation
		JOINT LeftUpLeg
		{
			OFFSET 1.800000 -1.400000 0.085000
			CHANNELS 3 Zrotation Yrotation Xrotation
			JOINT LeftLeg
			{
				OFFSET 2.215000 -6.000000 0.000000
				CHANNELS 3 Zrotation Yrotation Xrotation
				JOINT LeftFoot
				{
					OFFSET 2.500000 -6.900000 0.000000
					CHANNELS 3 Zrotation Yrotation Xrotation
					JOINT LeftToeBase
					{
						OFFSET 0.200000 -0.500000 1.950000
						CHANNELS 3 Zrotation Yrotation Xrotation
						End Site
						{
							OFFSET 0.000000 0.000000 0.000000
						}
					}
				}
			}
		}
	}
	JOINT RHipJoint
	{
		OFFSET 0.000000 0.000000 0.000000
		CHANNELS 3 Zrotation Yrotation Xrotation
		JOINT RightUpLeg
		{
			OFFSET -1.800000 -1.400000 0.085000
			CHANNELS 3 Zrotation Yrotation Xrotation
			JOINT RightLeg
			{
				OFFSET -2.215000 -6.000000 0.000000
				CHANNELS 3 Zrotation Yrotation Xrotation
				JOINT RightFoot
				{
					OFFSET -2.500000 -6.900000 0.000000
					CHANNELS 3 Zrotation Yrotation Xrotation
					JOINT RightToeBase
					{
						OFFSET -0.200000 -0.500000 1.950000
						CHANNELS 3 Zrotation Yrotation Xrotation
						End Site
						{
							OFFSET 0.000000 0.000000 0.000000
						}
					}
				}
			}
		}
	}
	JOINT LowerBack
	{
		OFFSET 0.000000 0.000000 0.000000
		CHANNELS 3 Zrotation Yrotation Xrotation
		JOINT Spine
		{
			OFFSET -0.087000 1.940000 -0.288900
			CHANNELS 3 Zrotation Yrotation Xrotation
			JOINT Spine1
			{
				OFFSET 0.000000 1.950000 0.060000
				CHANNELS 3 Zrotation Yrotation Xrotation
				JOINT Neck
				{
					OFFSET 0.000000 0.000000 0.000000
					CHANNELS 3 Zrotation Yrotation Xrotation
					JOINT Neck1
					{
						OFFSET 0.000000 1.600000 0.340000
						CHANNELS 3 Zrotation Yrotation Xrotation
						JOINT Head
						{
							OFFSET 0.000000 1.667000 -0.240000
							CHANNELS 3 Zrotation Yrotation Xrotation
							End Site
							{
								OFFSET 0.000000 0.000000 0.000000
							}
						}
					}
				}
				JOINT LeftShoulder
				{
					OFFSET 0.000000 0.000000 0.000000
					CHANNELS 3 Zrotation Yrotation Xrotation
					JOINT LeftArm
					{
						OFFSET 2.700000 1.550000 -0.730000
						CHANNELS 3 Zrotation Yrotation Xrotation
						JOINT LeftForeArm
						{
							OFFSET 5.450000 0.000000 0.000000
							CHANNELS 3 Zrotation Yrotation Xrotation
							JOINT LeftHand
							{
								OFFSET 3.450000 0.000000 0.000000
								CHANNELS 3 Zrotation Yrotation Xrotation
								JOINT LeftHandIndex1
								{
									OFFSET 0.750000 0.000000 0.000000
									CHANNELS 3 Zrotation Yrotation Xrotation
									End Site
									{
										OFFSET 0.000000 0.000000 0.000000
									}
								}
							}
						}
					}
				}
				JOINT RightShoulder
				{
					OFFSET 0.000000 0.000000 0.000000
					CHANNELS 3 Zrotation Yrotation Xrotation
					JOINT RightArm
					{
						OFFSET -2.700000 1.550000 -0.730000
						CHANNELS 3 Zrotation Yrotation Xrotation
						JOINT RightForeArm
						{
							OFFSET -5.450000 0.000000 0.000000
							CHANNELS 3 Zrotation Yrotation Xrotation
							JOINT RightHand
							{
								OFFSET -3.450000 0.000000 0.000000
								CHANNELS 3 Zrotation Yrotation Xrotation
								JOINT RightHandIndex1
								{
									OFFSET -0.750000 0.000000 0.000000
									CHANNELS 3 Zrotation Yrotation Xrotation
									End Site
									{
										OFFSET 0.000000 0.000000 0.000000
									}
								}
							}
						}
					}
				}
			}
		}
	}
}
MOTION
Frames: 8
Frame Time: 0.016667
-2.580960 16.790120 -3.364300 -6.035161 -53.580483 4.201053 -14.965096 13.070125 3.629955 15.662895 -2.274500 -24.400286 -3.153970 3.162015 2.306657 -0.480411 3.115371 3.415802 0.370460 0.520020 0.095380 18.170177 -10.691311 3.164427 -15.696213 0.857767 -3.022222 15.189550 -5.584415 4.761688 -0.386373 -4.792772 2.704848 0.539320 0.301520 0.032860 -3.867493 -2.069133 -7.684042 4.559203 -4.232082 26.905425 -28.951352 2.210857 2.609838 13.238037 -9.997332 -11.798957 -14.708415 10.193547 17.146936 2.212100 8.161300 -8.874320 -6.180146 2.605909 -1.715995 -29.392734 -37.384793 17.247775 138.965221 -26.938218 -67.973129 -3.936708 3.269353 -0.092750 0.270740 -0.151120 0.150860 -20.043670 0.754458 3.282456 -25.068328 -23.155679 1.448780 -16.749187 5.249202 -0.827233 3.197052 -1.856697 -0.141310 0.293580 -0.023640 -0.016390 
-2.624250 16.777620 -3.276250 -4.765243 -53.654519 6.239069 -14.911730 13.095654 3.742002 14.027615 -3.045276 -26.422180 -1.647947 2.694607 2.024487 -0.492701 2.779914 3.561103 0.344270 0.495720 0.048680 18.183184 -10.746682 3.217951 -16.253370 1.221495 -5.102640 14.493213 -5.184655 4.307721 -0.323159 -4.563757 2.780312 0.517650 0.328910 0.030970 -4.007248 -1.854280 -7.652438 3.062583 -3.635846 26.585323 -28.823735 0.072279 -3.518180 12.993458 -10.114236 -11.545083 -14.011314 9.904556 16.212594 3.822740 6.985340 -8.504630 -4.286177 8.542785 -2.460322 -30.753848 -34.086649 19.554135 144.193175 -23.220367 -64.248836 -3.878764 3.453071 -0.112140 0.268880 -0.168410 0.163430 -20.032150 -4.720203 3.248344 -17.117228 -23.858656 -0.226416 -13.891698 9.872908 -0.751961 2.683690 -1.955936 -0.135240 0.291530 -0.016180 0.012540 
-2.697730 16.786870 -3.175430 -3.187899 -54.414100 9.121970 -14.915531 12.879624 3.968502 13.307470 -3.856827 -28.776589 -2.131309 2.539928 1.691878 -0.468532 2.625407 3.618848 0.307130 0.459590 -0.001990 18.187761 -10.725181 3.214140 -16.680424 1.678375 -8.275876 13.592497 -4.702091 3.892040 -0.236267 -4.223977 2.890065 0.479300 0.348940 0.025660 -4.128474 -1.601732 -7.774591 1.868229 -2.219078 23.611772 -28.428986 -1.759786 -9.745053 12.204440 -9.478523 -10.639206 -13.167264 11.412362 16.961790 5.984060 6.731580 -7.587070 -2.474218 12.925454 -2.497916 -30.881805 -28.039360 18.556266 147.878049 -20.201084 -58.457278 -3.842007 3.599427 -0.117360 0.257890 -0.176200 0.171690 -19.069239 -8.908235 2.260657 -11.273754 -23.510259 -2.501172 -12.276757 13.243744 -0.636138 2.468436 -2.098946 -0.129480 0.280680 -0.007400 0.037420 
-2.691160 16.768690 -3.094600 -4.850511 -53.574374 10.967052 -15.063644 12.862405 4.180626 15.533225 -3.651524 -29.535649 -4.229628 3.024941 2.069543 -0.378108 2.920072 3.472019 0.275940 0.404350 0.008480 18.088308 -10.533820 3.020918 -15.858789 1.375914 -8.360501 13.480330 -4.936536 4.979984 -0.214235 -4.105787 2.937707 0.413700 0.297400 0.022220 -3.633836 -2.199142 -7.907982 0.894149 -0.075346 23.733023 -23.940464 -0.021191 -11.412504 11.456140 -9.068013 -9.736700 -13.425005 10.804688 17.906522 5.325680 6.204190 -7.961180 -4.454881 14.429093 -2.378796 -34.729449 -24.779011 20.129294 147.910774 -28.020866 -75.377970 -3.775691 3.532735 -0.083720 0.214500 -0.146580 0.150940 -15.252015 -10.119129 2.275279 -10.276042 -29.271021 0.271769 -14.194455 10.477011 -0.488145 2.817050 -1.742142 -0.114520 0.246890 -0.011960 0.025900 
-2.694380 16.745480 -3.025110 -6.402611 -54.439969 12.356818 -15.237591 12.975939 4.326019 17.783820 -3.266716 -29.461817 -5.760866 3.605136 3.040688 -0.291605 3.258433 3.303298 0.242610 0.355020 0.008840 17.967086 -10.319919 2.792078 -15.168380 1.094741 -8.529195 12.521528 -5.021842 6.165473 -0.178049 -3.915943 3.010637 0.351330 0.248830 0.014890 -3.157683 -2.958966 -7.969151 -0.590935 1.993183 23.182277 -18.667438 1.840958 -11.904451 10.051176 -8.612944 -9.295065 -14.143354 12.036866 18.556794 4.895230 7.152010 -8.110460 -7.781925 14.200388 -2.681590 -34.338159 -20.087334 17.454316 146.295901 -35.196913 -86.570050 -3.775154 3.426702 -0.042060 0.170850 -0.114210 0.132950 -8.940051 -9.216853 3.402736 -10.301692 -35.146939 3.596411 -15.261375 4.577493 -0.099532 3.090557 -1.347620 -0.105500 0.214100 -0.012830 0.012130 
-2.695700 16.737760 -2.957800 -7.147334 -54.100557 13.433401 -15.354548 12.940247 4.522331 19.224170 -3.255738 -30.366527 -7.619217 4.123280 4.026136 -0.226790 3.530152 3.173688 0.232050 0.337130 0.008130 17.905479 -10.158516 2.632853 -14.609432 0.892993 -8.295922 11.962741 -5.088242 6.894531 -0.173994 -3.812804 3.055480 0.315390 0.217130 -0.000480 -2.936547 -3.362232 -8.037580 -1.391811 2.956231 22.728018 -14.359004 2.502814 -12.758532 8.537243 -8.579176 -8.726472 -15.078305 13.337577 18.845611 5.561280 7.627470 -8.560940 -10.621376 14.637566 -3.149550 -34.240933 -15.899242 15.165140 145.150161 -39.726845 -92.031600 -3.745234 3.366484 -0.003630 0.124470 -0.086360 0.128900 -2.930096 -9.233692 4.089107 -9.218911 -39.553722 5.012454 -15.730234 1.775850 0.382361 3.131190 -1.265137 -0.099230 0.207050 -0.019290 0.010140 
-2.710240 16.742240 -2.903780 -7.381691 -54.068027 13.832918 -15.451278 12.919823 4.691577 20.453316 -3.228778 -30.614454 -9.520856 4.588553 4.541495 -0.155152 3.832740 3.050862 0.210370 0.309270 -0.005400 17.849552 -10.035398 2.486069 -14.347535 0.710429 -8.052572 11.331023 -5.152970 7.629867 -0.164113 -3.747912 3.091404 0.279630 0.205370 -0.008450 -2.763635 -3.697855 -8.061156 -2.487363 3.701595 22.323614 -10.426637 3.080419 -13.112752 7.049085 -8.885440 -8.382741 -16.280557 14.121951 18.471171 5.564210 7.919050 -8.646050 -12.602847 15.093667 -3.392416 -33.753003 -13.269712 13.948256 145.582673 -42.253896 -96.549736 -3.734412 3.343679 0.012990 0.101710 -0.075330 0.127370 2.237011 -9.387244 4.761591 -6.202670 -42.914950 5.201945 -15.245128 0.434150 0.674806 3.083448 -1.233816 -0.094530 0.200170 -0.018470 0.013860 
-2.700840 16.728330 -2.856170 -8.068902 -54.902131 14.157458 -15.547110 12.933791 4.791445 21.567063 -3.025858 -30.310443 -11.061188 5.050522 5.021234 -0.100103 4.152290 2.928219 0.190650 0.282700 -0.010920 17.790265 -9.913951 2.359727 -14.356447 0.591414 -7.889761 10.990395 -5.256167 8.341852 -0.152156 -3.729153 3.105740 0.256060 0.201440 -0.012320 -2.608327 -4.039525 -8.043594 -3.019705 4.393640 21.925019 -6.838682 4.173406 -11.967917 5.492540 -9.322769 -8.227338 -17.627593 14.832735 17.666699 4.721000 8.551410 -8.634640 -14.341080 14.744396 -3.339497 -33.113344 -12.008624 13.285199 147.017341 -43.261554 -100.670905 -3.744366 3.335028 0.018800 0.097880 -0.075240 0.122480 6.976676 -8.672376 5.436212 -1.951805 -44.763779 4.439699 -14.448221 -0.845353 0.851918 3.020154 -1.217720 -0.097330 0.195780 -0.013960 0.009920 
